<?xml version="1.0" encoding="utf-8"?>
<!-- Generator: Adobe Illustrator 24.1.2, SVG Export Plug-In . SVG Version: 6.00 Build 0)  -->
<svg version="1.1" id="Capa_1" xmlns="http://www.w3.org/2000/svg" xmlns:xlink="http://www.w3.org/1999/xlink" x="0px" y="0px"
	 viewBox="0 0 304.9 304.9" style="enable-background:new 0 0 304.9 304.9;" xml:space="preserve">
<style type="text/css">
	.st0{fill:url(#SVGID_1_);}
	.st1{fill:#FFFFFF;}
</style>
<g id="SvgjsG3456" transform="matrix(3.328125,0,0,3.328125,0,0)">
	<g>
		
			<linearGradient id="SVGID_1_" gradientUnits="userSpaceOnUse" x1="-103.9213" y1="195.7141" x2="-102.9203" y2="195.7141" gradientTransform="matrix(304.9068 0 0 -304.9068 31686.207 59720.4531)">
			<stop  offset="0" style="stop-color:#EF4136"/>
			<stop  offset="1" style="stop-color:#FBB040"/>
		</linearGradient>
		<path class="st0" d="M-0.1,0.2l91.7,24.1v67.3L-0.1,66.9V0.2z"/>
	</g>
</g>
<g id="SvgjsG3457" transform="matrix(1.4711831404670417,0,0,1.4711831404670417,92.44084017058876,33.6433014071615)">
	<path class="st1" d="M86.2,82c0,4.9-4,8.9-8.9,8.9c-4.9,0-8.9-4-8.9-8.9c0-4.9,4-8.9,8.9-8.9c0.8,0,1.5,0.1,2.2,0.3
		c0,0.1,0,0.2,0,0.2c-0.2,0.9-0.9,2.2-1.2,2.3c-0.2,0.1-0.7,0.3-0.8,1c-0.2,0.9,0.1,2.7,1.3,3.6c0.8,0.6,1.7,0.8,2.3,0.8
		c0.6,0,1.3-0.1,1.6-0.4c0.2-0.2,1.3-1.5,2.2-3.8C85.6,78.5,86.2,80.2,86.2,82z M75.1,72.9c0,0-1.3-4.7-0.7-6.4
		c0.2-1.2,1.4-0.8,1.4-0.8s2.3,0.4,3.5,1.7c0.9,1,1,2.6,1,2.6s0.2,2.7,0,3.6c-0.2,0.9-0.9,2.8-1.8,3c-0.5,0.1-0.3,2.2,0.7,3
		c1,0.8,2.5,0.5,2.8,0.3c0.3-0.2,4-5.1,2.2-12.5c-1-4.3-6.9-5.8-6.9-5.9c0,0-4-1.4-5.8,0.9c-2.2,2.7-1.6,6.7-1.6,6.7s0,0.7,1.3,5.4
		c0,0,1-0.7,1.7-1.1C74,73.2,75.1,72.9,75.1,72.9z"/>
</g>
<g id="SvgjsG3458" transform="matrix(2.066542700171886,0,0,2.066542700171886,66,189.4333574980757)">
	<polygon class="st1" points="17.5,-23.2 14.8,-32.6 11.2,-32.6 15.7,-16.8 15.7,-6.5 19.2,-6.5 19.2,-16.7 24.1,-32.6 20.4,-32.6 	
		"/>
	<path class="st1" d="M2.9-33.1H2c-2.6,0-4.6,2.1-4.6,4.7v17.7c0,2.6,2.1,4.6,4.6,4.6h0.8c2.6,0,4.6-2.1,4.6-4.6v-13.1H1.8v3.6h2.1
		v9.5c0,0.5-0.4,1.1-1,1.1H2C1.5-9.7,1-10.2,1-10.8v-17.7c0-0.6,0.5-1.1,1.1-1.1h0.8c0.6,0,1,0.4,1,1.1v1.9h3.6v-1.9
		C7.5-31,5.4-33.1,2.9-33.1z"/>
	<polygon class="st1" points="36.2,-17.9 34,-32.7 27.8,-32.7 27.8,-6.5 31.3,-6.5 31.3,-27.2 34.5,-6.5 35.9,-6.5 36.2,-6.5 
		36.5,-6.5 37.9,-6.5 41.1,-27.2 41.1,-6.5 44.6,-6.5 44.6,-32.7 38.5,-32.7 	"/>
	<path class="st1" d="M55.6-11.8c0,1.1-0.8,1.9-1.9,1.9c-1.1,0-1.9-0.9-1.9-1.9v-20.8h-3.5v20.8c0,3,2.4,5.4,5.4,5.4
		c3,0,5.4-2.4,5.4-5.4v-20.8h-3.5V-11.8z"/>
	<path class="st1" d="M86.1-26.3v-1.5c0-2.7-2.2-4.9-4.9-4.9c-2.7,0-4.9,2.2-4.9,4.9v16.3c0,2.7,2.2,4.9,4.9,4.9
		c2.7,0,4.9-2.2,4.9-4.9v-2.3h-3.5v2.3c0,0.8-0.7,1.4-1.4,1.4c-0.8,0-1.4-0.7-1.4-1.4v-16.3c0-0.8,0.7-1.4,1.4-1.4
		c0.8,0,1.4,0.7,1.4,1.4v1.5H86.1z"/>
</g>
</svg>
