<?xml version="1.0" encoding="utf-8"?>
<!-- Generator: Adobe Illustrator 24.1.2, SVG Export Plug-In . SVG Version: 6.00 Build 0)  -->
<svg version="1.1" id="Capa_1" xmlns="http://www.w3.org/2000/svg" xmlns:xlink="http://www.w3.org/1999/xlink" x="0px" y="0px"
	 viewBox="0 0 304.9 304.9" style="enable-background:new 0 0 304.9 304.9;" xml:space="preserve">
<style type="text/css">
	.st0{display:none;}
	.st1{display:inline;}
	.st2{fill:url(#SVGID_1_);}
	.st3{fill:#FF6720;}
	.st4{fill:#FFFFFF;}
	.st5{display:inline;fill:#FFFFFF;}
</style>
<g id="SvgjsG3456" transform="matrix(3.328125,0,0,3.328125,0,0)" class="st0">
	<g class="st1">
		
			<linearGradient id="SVGID_1_" gradientUnits="userSpaceOnUse" x1="-103.9213" y1="195.7141" x2="-102.9203" y2="195.7141" gradientTransform="matrix(304.9068 0 0 -304.9068 31686.207 59720.4531)">
			<stop  offset="0" style="stop-color:#EF4136"/>
			<stop  offset="1" style="stop-color:#FBB040"/>
		</linearGradient>
		<path class="st2" d="M-0.1,0.2l91.7,24.1v67.3L-0.1,66.9V0.2z"/>
	</g>
</g>
<polygon class="st3" points="-0.3,0.6 304.9,81.7 304.9,304.9 0,221.6 "/>
<g id="SvgjsG3457" transform="matrix(1.4711831404670417,0,0,1.4711831404670417,92.44084017058876,33.6433014071615)">
	<path class="st4" d="M57.9,78c0,4.1-3.3,7.4-7.4,7.4s-7.4-3.3-7.4-7.4c0-4.1,3.3-7.4,7.4-7.4c0.6,0,1.2,0.1,1.8,0.2
		c0,0.1,0,0.1,0,0.2c-0.1,0.7-0.7,1.8-1,1.9c-0.2,0-0.6,0.2-0.7,0.8c-0.2,0.7,0.1,2.2,1,3c0.6,0.5,1.4,0.6,1.9,0.6
		c0.5,0,1-0.1,1.3-0.3c0.2-0.1,1.1-1.3,1.8-3.2C57.4,75.1,57.9,76.5,57.9,78z M48.7,70.6c0,0-1.1-3.9-0.6-5.2c0.2-1,1.1-0.6,1.1-0.6
		s1.9,0.4,2.9,1.4c0.8,0.8,0.8,2.1,0.8,2.1s0.2,2.2,0,3c-0.1,0.7-0.8,2.3-1.5,2.5c-0.4,0.1-0.2,1.8,0.6,2.5c0.8,0.7,2,0.5,2.3,0.3
		c0.3-0.2,3.3-4.2,1.8-10.3c-0.8-3.6-5.7-4.8-5.7-4.9c0,0-3.3-1.2-4.8,0.7c-1.8,2.3-1.3,5.5-1.3,5.5s0,0.6,1.1,4.4
		c0,0,0.8-0.6,1.4-0.9C47.8,70.8,48.7,70.6,48.7,70.6z"/>
</g>
<g id="SvgjsG3458" transform="matrix(2.066542700171886,0,0,2.066542700171886,66,189.4333574980757)" class="st0">
	<polygon class="st5" points="17.5,-23.2 14.8,-32.6 11.2,-32.6 15.7,-16.8 15.7,-6.5 19.2,-6.5 19.2,-16.7 24.1,-32.6 20.4,-32.6 	
		"/>
	<path class="st5" d="M2.9-33.1H2c-2.6,0-4.6,2.1-4.6,4.7v17.7c0,2.6,2.1,4.6,4.6,4.6h0.8c2.6,0,4.6-2.1,4.6-4.6v-13.1H1.8v3.6h2.1
		v9.5c0,0.5-0.4,1.1-1,1.1H2C1.5-9.7,1-10.2,1-10.8v-17.7c0-0.6,0.5-1.1,1.1-1.1h0.8c0.6,0,1,0.4,1,1.1v1.9h3.6v-1.9
		C7.5-31,5.4-33.1,2.9-33.1z"/>
	<polygon class="st5" points="36.2,-17.9 34,-32.7 27.8,-32.7 27.8,-6.5 31.3,-6.5 31.3,-27.2 34.5,-6.5 35.9,-6.5 36.2,-6.5 
		36.5,-6.5 37.9,-6.5 41.1,-27.2 41.1,-6.5 44.6,-6.5 44.6,-32.7 38.5,-32.7 	"/>
	<path class="st5" d="M55.6-11.8c0,1.1-0.8,1.9-1.9,1.9c-1.1,0-1.9-0.9-1.9-1.9v-20.8h-3.5v20.8c0,3,2.4,5.4,5.4,5.4
		c3,0,5.4-2.4,5.4-5.4v-20.8h-3.5V-11.8z"/>
	<path class="st5" d="M86.1-26.3v-1.5c0-2.7-2.2-4.9-4.9-4.9c-2.7,0-4.9,2.2-4.9,4.9v16.3c0,2.7,2.2,4.9,4.9,4.9
		c2.7,0,4.9-2.2,4.9-4.9v-2.3h-3.5v2.3c0,0.8-0.7,1.4-1.4,1.4c-0.8,0-1.4-0.7-1.4-1.4v-16.3c0-0.8,0.7-1.4,1.4-1.4
		c0.8,0,1.4,0.7,1.4,1.4v1.5H86.1z"/>
</g>
<g id="SvgjsG1378" transform="matrix(3.7664781803995404,0,0,3.7664781803995404,105.74011255296125,-3.7156228082104654)">
	<path class="st4" d="M10.7,33.4H6v12h4.2c0.7,0,1.2-0.1,1.5-0.4c0.3-0.3,0.4-0.8,0.4-1.4v-8.7c0-0.4-0.1-0.8-0.4-1.1
		C11.5,33.5,11.1,33.4,10.7,33.4z M9.7,43c0,0.1,0,0.2,0,0.2c0,0-0.1,0.1-0.2,0.1H8.4v-7.8h1.1c0.1,0,0.2,0.1,0.2,0.2V43z"/>
	<polygon class="st4" points="2.5,38.2 1.3,33.4 -1,33.4 -1,45.4 1.3,45.4 1.3,40.4 2.5,45.4 5,45.4 5,33.4 2.5,33.4 	"/>
	<path class="st4" d="M-4.4,43c0,0.1,0,0.2,0,0.2c0,0-0.1,0.1-0.2,0.1h-0.8c-0.1,0-0.2,0-0.2-0.1c0,0,0-0.1,0-0.2v-9.6h-2.4v10.1
		c0,0.7,0.1,1.1,0.4,1.4c0.3,0.3,0.8,0.4,1.5,0.4h2.5c0.7,0,1.2-0.1,1.5-0.4c0.3-0.3,0.4-0.8,0.4-1.4V33.4h-2.4V43z"/>
	<polygon class="st4" points="-13,38.5 -14.3,33.4 -16.8,33.4 -16.8,45.4 -14.5,45.4 -14.5,39.7 -13,44.5 -11.4,39.7 -11.4,45.4 
		-9.1,45.4 -9.1,33.4 -11.7,33.4 	"/>
	<polygon class="st4" points="29.7,39.1 28.6,33.4 26.2,33.4 28.5,42.3 28.5,45.4 31,45.4 31,42.3 33.3,33.4 30.8,33.4 	"/>
	<path class="st4" d="M24,43.2h-1.1c-0.1,0-0.2-0.1-0.2-0.2v-7.1c0-0.2,0.1-0.2,0.2-0.2h2.6l-0.4-2.2h-3.4c-0.5,0-0.8,0.1-1.1,0.4
		c-0.2,0.3-0.4,0.6-0.4,1.1v8.7c0,0.7,0.1,1.1,0.4,1.4c0.3,0.3,0.8,0.4,1.5,0.4h4.2v-6.9H24V43.2z"/>
	<polygon class="st4" points="39.1,33.4 37.8,38.5 36.5,33.4 33.9,33.4 33.9,45.4 36.3,45.4 36.3,39.7 37.8,44.5 39.3,39.7 
		39.3,45.4 41.6,45.4 41.6,33.4 	"/>
</g>
</svg>
